<?xml version="1.0" encoding="UTF-8"?>
<svg width="21px" height="14px" viewBox="0 0 21 14" version="1.1" xmlns="http://www.w3.org/2000/svg" xmlns:xlink="http://www.w3.org/1999/xlink">
    <!-- Generator: Sketch 50.2 (55047) - http://www.bohemiancoding.com/sketch -->
    <title>googleplus</title>
    <desc>Created with Sketch.</desc>
    <defs></defs>
    <g id="pattern" stroke="none" stroke-width="1" fill="none" fill-rule="evenodd">
        <g id="social-icons" transform="translate(-51.000000, -14.000000)" fill="#454B49" fill-rule="nonzero">
            <g id="googleplus" transform="translate(51.000000, 14.000000)">
                <path d="M20.454823,5.98382156 L19.0162099,5.98382156 L19.0162099,4.54516568 C19.0162099,4.24401616 18.7721887,4 18.4710329,4 L16.5289671,4 C16.2278113,4 15.9837901,4.24401616 15.9837901,4.54516568 L15.9837901,5.98382156 L14.545177,5.98382156 C14.2440212,5.98382156 14,6.22783772 14,6.52898724 L14,8.47101276 C14,8.77216228 14.2440212,9.01617844 14.545177,9.01617844 L15.9837901,9.01617844 L15.9837901,10.4548343 C15.9837901,10.7559112 16.2278113,11 16.5289671,11 L18.4710329,11 C18.7721887,11 19.0162099,10.7559112 19.0162099,10.4548343 L19.0162099,9.01617844 L20.454823,9.01617844 C20.7559788,9.01617844 21,8.77216228 21,8.47101276 L21,6.52898724 C21,6.22783772 20.7559788,5.98382156 20.454823,5.98382156 Z" id="XMLID_511_"></path>
                <path d="M6.64351168,3.3449108 C7.2359788,3.3449108 7.80543306,3.51279704 8.29118047,3.83054747 L8.84616205,4.22970559 C9.03958744,4.36881134 9.29976969,4.34421086 9.46640106,4.17070556 L11.0849941,2.48526468 C11.1885846,2.37740633 11.240934,2.22665133 11.2278303,2.07404616 C11.2147919,1.92144098 11.1376043,1.78295196 11.0173898,1.69626783 L10.0766657,1.01814444 C10.0574991,1.00437092 10.0373547,0.991967891 10.0165584,0.981209466 L9.10523603,0.50824992 C9.09317546,0.501945621 9.08085413,0.496189521 9.06833722,0.490981621 C8.28329221,0.165213774 7.4561982,0 6.61006806,0 C4.86571917,0 3.22033211,0.703751744 1.97698562,1.98140036 C0.71440742,3.2788527 0.0122869458,5.04316585 0.000161188313,6.94939429 C-0.0120297614,8.85603387 0.667664581,10.6305573 1.91387953,11.9459631 C3.15044602,13.2512959 4.90483452,14 6.72728372,14 C8.53037082,14 10.2221096,13.26411 11.3686456,11.9810479 C12.2768387,10.9647537 12.8341672,9.60727344 12.9806542,8.05538778 C12.9820232,8.0406549 12.9828707,8.02592203 12.9830011,8.01118915 L12.9999511,6.61704804 C13.0003423,6.58819902 12.9983865,6.55941852 12.9940838,6.53091212 L12.9230243,6.0544578 C12.8857995,5.80441007 12.6807699,5.62007782 12.4400149,5.62007782 L6.78967269,5.62007782 C6.51958122,5.62007782 6.30073086,5.85018477 6.30073086,6.13401532 L6.30073086,8.18853185 C6.30073086,8.4723624 6.51958122,8.70246935 6.78967269,8.70246935 L9.67025721,8.70246935 C9.53824292,9.00665182 9.33021447,9.32741734 9.06716376,9.62632339 C8.49340681,10.2785443 7.6377586,10.6526223 6.71959103,10.6526223 C5.78193098,10.6526223 4.883973,10.2664154 4.25597611,9.59308876 C2.94874122,8.19188958 2.96373544,5.75041237 4.28785512,4.36840019 C4.91122336,3.71802942 5.76987041,3.3449108 6.64351168,3.3449108 Z" id="XMLID_512_"></path>
            </g>
        </g>
    </g>
</svg>