<?xml version="1.0" encoding="UTF-8"?>
<svg width="144px" height="49px" viewBox="0 0 144 49" version="1.1" xmlns="http://www.w3.org/2000/svg" xmlns:xlink="http://www.w3.org/1999/xlink">
    <!-- Generator: Sketch 50.2 (55047) - http://www.bohemiancoding.com/sketch -->
    <title>logo-large</title>
    <desc>Created with Sketch.</desc>
    <defs></defs>
    <g id="pattern" stroke="none" stroke-width="1" fill="none" fill-rule="evenodd">
        <g id="logo-large" transform="translate(0.000000, -4.000000)">
            <g>
                <text id="H-VE" font-family="BodoniSvtyTwoITCTT-Bold, Bodoni 72" font-size="55" font-weight="bold" fill="#151516">
                    <tspan x="0" y="51"></tspan>
                    <tspan x="0" y="117">H     VE</tspan>
                </text>
                <g id="hexagon-I" transform="translate(40.000000, 0.000000)">
                    <g id="hexagon" transform="translate(27.823529, 46.798460) rotate(30.000000) translate(-27.823529, -46.798460) translate(20.705882, 39.198460)">
                        <polygon id="Path-8" stroke="#030303" stroke-width="0.880925543" transform="translate(7.000000, 7.500000) rotate(33.000000) translate(-7.000000, -7.500000) " points="6.65175332 2.5 11.1420748 4.75687692 11.3423539 8.02123695 11.4545455 9.84985225 7.34824668 12.5 2.70310639 10.203269 2.54545455 5.15014775"></polygon>
                        <polygon id="Path-8" fill="#000000" fill-rule="evenodd" transform="translate(6.960960, 7.568645) rotate(33.000000) translate(-6.960960, -7.568645) " points="6.73720686 4.3937816 9.62230112 5.82683683 9.82306789 9.06073714 7.18471357 10.7435086 4.20014605 9.28514714 4.09885254 6.07655308"></polygon>
                        <polygon id="Path-8" stroke="#030303" stroke-width="0.880925543" transform="translate(7.000000, 7.500000) rotate(33.000000) translate(-7.000000, -7.500000) " points="6.65175332 2.5 11.1420748 4.75687692 11.3423539 8.02123695 11.4545455 9.84985225 7.34824668 12.5 2.70310639 10.203269 2.54545455 5.15014775"></polygon>
                        <polygon id="Path-8" fill="#000000" fill-rule="evenodd" transform="translate(6.960960, 7.568645) rotate(33.000000) translate(-6.960960, -7.568645) " points="6.73720686 4.3937816 9.62230112 5.82683683 9.82306789 9.06073714 7.18471357 10.7435086 4.20014605 9.28514714 4.09885254 6.07655308"></polygon>
                    </g>
                    <g id="hexagon" transform="translate(33.000000, 39.198460) rotate(30.000000) translate(-33.000000, -39.198460) translate(25.882353, 31.598460)">
                        <polygon id="Path-8" stroke="#030303" stroke-width="0.880925543" transform="translate(7.000000, 7.500000) rotate(33.000000) translate(-7.000000, -7.500000) " points="6.65175332 2.5 11.1420748 4.75687692 11.3423539 8.02123695 11.4545455 9.84985225 7.34824668 12.5 2.70310639 10.203269 2.54545455 5.15014775"></polygon>
                        <polygon id="Path-8" fill="#000000" fill-rule="evenodd" transform="translate(6.960960, 7.568645) rotate(33.000000) translate(-6.960960, -7.568645) " points="6.73720686 4.3937816 9.62230112 5.82683683 9.82306789 9.06073714 7.18471357 10.7435086 4.20014605 9.28514714 4.09885254 6.07655308"></polygon>
                        <polygon id="Path-8" stroke="#030303" stroke-width="0.880925543" transform="translate(7.000000, 7.500000) rotate(33.000000) translate(-7.000000, -7.500000) " points="6.65175332 2.5 11.1420748 4.75687692 11.3423539 8.02123695 11.4545455 9.84985225 7.34824668 12.5 2.70310639 10.203269 2.54545455 5.15014775"></polygon>
                        <polygon id="Path-8" fill="#000000" fill-rule="evenodd" transform="translate(6.960960, 7.568645) rotate(33.000000) translate(-6.960960, -7.568645) " points="6.73720686 4.3937816 9.62230112 5.82683683 9.82306789 9.06073714 7.18471357 10.7435086 4.20014605 9.28514714 4.09885254 6.07655308"></polygon>
                    </g>
                    <g id="hexagon" transform="translate(16.176471, 23.998460) rotate(30.000000) translate(-16.176471, -23.998460) translate(9.058824, 16.398460)">
                        <polygon id="Path-8" stroke="#030303" stroke-width="0.880925543" transform="translate(7.000000, 7.500000) rotate(33.000000) translate(-7.000000, -7.500000) " points="6.65175332 2.5 11.1420748 4.75687692 11.3423539 8.02123695 11.4545455 9.84985225 7.34824668 12.5 2.70310639 10.203269 2.54545455 5.15014775"></polygon>
                        <polygon id="Path-8" fill="#000000" fill-rule="evenodd" transform="translate(6.960960, 7.568645) rotate(33.000000) translate(-6.960960, -7.568645) " points="6.73720686 4.3937816 9.62230112 5.82683683 9.82306789 9.06073714 7.18471357 10.7435086 4.20014605 9.28514714 4.09885254 6.07655308"></polygon>
                        <polygon id="Path-8" stroke="#030303" stroke-width="0.880925543" transform="translate(7.000000, 7.500000) rotate(33.000000) translate(-7.000000, -7.500000) " points="6.65175332 2.5 11.1420748 4.75687692 11.3423539 8.02123695 11.4545455 9.84985225 7.34824668 12.5 2.70310639 10.203269 2.54545455 5.15014775"></polygon>
                        <polygon id="Path-8" fill="#000000" fill-rule="evenodd" transform="translate(6.960960, 7.568645) rotate(33.000000) translate(-6.960960, -7.568645) " points="6.73720686 4.3937816 9.62230112 5.82683683 9.82306789 9.06073714 7.18471357 10.7435086 4.20014605 9.28514714 4.09885254 6.07655308"></polygon>
                    </g>
                    <g id="hexagon" transform="translate(11.000000, 31.598460) rotate(30.000000) translate(-11.000000, -31.598460) translate(3.882353, 23.998460)">
                        <polygon id="Path-8" stroke="#030303" stroke-width="0.880925543" transform="translate(7.000000, 7.500000) rotate(33.000000) translate(-7.000000, -7.500000) " points="6.65175332 2.5 11.1420748 4.75687692 11.3423539 8.02123695 11.4545455 9.84985225 7.34824668 12.5 2.70310639 10.203269 2.54545455 5.15014775"></polygon>
                        <polygon id="Path-8" fill="#000000" fill-rule="evenodd" transform="translate(6.960960, 7.568645) rotate(33.000000) translate(-6.960960, -7.568645) " points="6.73720686 4.3937816 9.62230112 5.82683683 9.82306789 9.06073714 7.18471357 10.7435086 4.20014605 9.28514714 4.09885254 6.07655308"></polygon>
                        <polygon id="Path-8" stroke="#030303" stroke-width="0.880925543" transform="translate(7.000000, 7.500000) rotate(33.000000) translate(-7.000000, -7.500000) " points="6.65175332 2.5 11.1420748 4.75687692 11.3423539 8.02123695 11.4545455 9.84985225 7.34824668 12.5 2.70310639 10.203269 2.54545455 5.15014775"></polygon>
                        <polygon id="Path-8" fill="#000000" fill-rule="evenodd" transform="translate(6.960960, 7.568645) rotate(33.000000) translate(-6.960960, -7.568645) " points="6.73720686 4.3937816 9.62230112 5.82683683 9.82306789 9.06073714 7.18471357 10.7435086 4.20014605 9.28514714 4.09885254 6.07655308"></polygon>
                    </g>
                    <g id="hexagon" transform="translate(23.941176, 10.065126) rotate(30.000000) translate(-23.941176, -10.065126) translate(16.823529, 2.465126)">
                        <polygon id="Path-8" stroke="#030303" stroke-width="0.880925543" transform="translate(7.000000, 7.500000) rotate(33.000000) translate(-7.000000, -7.500000) " points="6.65175332 2.5 11.1420748 4.75687692 11.3423539 8.02123695 11.4545455 9.84985225 7.34824668 12.5 2.70310639 10.203269 2.54545455 5.15014775"></polygon>
                        <polygon id="Path-8" fill="#000000" fill-rule="evenodd" transform="translate(6.960960, 7.568645) rotate(33.000000) translate(-6.960960, -7.568645) " points="6.73720686 4.3937816 9.62230112 5.82683683 9.82306789 9.06073714 7.18471357 10.7435086 4.20014605 9.28514714 4.09885254 6.07655308"></polygon>
                        <polygon id="Path-8" stroke="#030303" stroke-width="0.880925543" transform="translate(7.000000, 7.500000) rotate(33.000000) translate(-7.000000, -7.500000) " points="6.65175332 2.5 11.1420748 4.75687692 11.3423539 8.02123695 11.4545455 9.84985225 7.34824668 12.5 2.70310639 10.203269 2.54545455 5.15014775"></polygon>
                        <polygon id="Path-8" fill="#000000" fill-rule="evenodd" transform="translate(6.960960, 7.568645) rotate(33.000000) translate(-6.960960, -7.568645) " points="6.73720686 4.3937816 9.62230112 5.82683683 9.82306789 9.06073714 7.18471357 10.7435086 4.20014605 9.28514714 4.09885254 6.07655308"></polygon>
                    </g>
                    <g id="hexagon" transform="translate(20.058824, 31.598460) rotate(30.000000) translate(-20.058824, -31.598460) translate(12.941176, 23.998460)">
                        <polygon id="Path-8" stroke="#030303" stroke-width="0.880925543" transform="translate(7.000000, 7.500000) rotate(33.000000) translate(-7.000000, -7.500000) " points="6.65175332 2.5 11.1420748 4.75687692 11.3423539 8.02123695 11.4545455 9.84985225 7.34824668 12.5 2.70310639 10.203269 2.54545455 5.15014775"></polygon>
                        <polygon id="Path-8" fill="#000000" fill-rule="evenodd" transform="translate(6.960960, 7.568645) rotate(33.000000) translate(-6.960960, -7.568645) " points="6.73720686 4.3937816 9.62230112 5.82683683 9.82306789 9.06073714 7.18471357 10.7435086 4.20014605 9.28514714 4.09885254 6.07655308"></polygon>
                        <polygon id="Path-8" stroke="#030303" stroke-width="0.880925543" transform="translate(7.000000, 7.500000) rotate(33.000000) translate(-7.000000, -7.500000) " points="6.65175332 2.5 11.1420748 4.75687692 11.3423539 8.02123695 11.4545455 9.84985225 7.34824668 12.5 2.70310639 10.203269 2.54545455 5.15014775"></polygon>
                        <polygon id="Path-8" fill="#000000" fill-rule="evenodd" transform="translate(6.960960, 7.568645) rotate(33.000000) translate(-6.960960, -7.568645) " points="6.73720686 4.3937816 9.62230112 5.82683683 9.82306789 9.06073714 7.18471357 10.7435086 4.20014605 9.28514714 4.09885254 6.07655308"></polygon>
                    </g>
                    <g id="hexagon" transform="translate(23.941176, 39.198460) rotate(30.000000) translate(-23.941176, -39.198460) translate(16.823529, 31.598460)">
                        <polygon id="Path-8" stroke="#030303" stroke-width="0.880925543" transform="translate(7.000000, 7.500000) rotate(33.000000) translate(-7.000000, -7.500000) " points="6.65175332 2.5 11.1420748 4.75687692 11.3423539 8.02123695 11.4545455 9.84985225 7.34824668 12.5 2.70310639 10.203269 2.54545455 5.15014775"></polygon>
                        <polygon id="Path-8" fill="#000000" fill-rule="evenodd" transform="translate(6.960960, 7.568645) rotate(33.000000) translate(-6.960960, -7.568645) " points="6.73720686 4.3937816 9.62230112 5.82683683 9.82306789 9.06073714 7.18471357 10.7435086 4.20014605 9.28514714 4.09885254 6.07655308"></polygon>
                        <polygon id="Path-8" stroke="#030303" stroke-width="0.880925543" transform="translate(7.000000, 7.500000) rotate(33.000000) translate(-7.000000, -7.500000) " points="6.65175332 2.5 11.1420748 4.75687692 11.3423539 8.02123695 11.4545455 9.84985225 7.34824668 12.5 2.70310639 10.203269 2.54545455 5.15014775"></polygon>
                        <polygon id="Path-8" fill="#000000" fill-rule="evenodd" transform="translate(6.960960, 7.568645) rotate(33.000000) translate(-6.960960, -7.568645) " points="6.73720686 4.3937816 9.62230112 5.82683683 9.82306789 9.06073714 7.18471357 10.7435086 4.20014605 9.28514714 4.09885254 6.07655308"></polygon>
                    </g>
                    <g id="hexagon" transform="translate(18.764706, 46.798460) rotate(30.000000) translate(-18.764706, -46.798460) translate(11.647059, 39.198460)">
                        <polygon id="Path-8" stroke="#030303" stroke-width="0.880925543" transform="translate(7.000000, 7.500000) rotate(33.000000) translate(-7.000000, -7.500000) " points="6.65175332 2.5 11.1420748 4.75687692 11.3423539 8.02123695 11.4545455 9.84985225 7.34824668 12.5 2.70310639 10.203269 2.54545455 5.15014775"></polygon>
                        <polygon id="Path-8" fill="#000000" fill-rule="evenodd" transform="translate(6.960960, 7.568645) rotate(33.000000) translate(-6.960960, -7.568645) " points="6.73720686 4.3937816 9.62230112 5.82683683 9.82306789 9.06073714 7.18471357 10.7435086 4.20014605 9.28514714 4.09885254 6.07655308"></polygon>
                        <polygon id="Path-8" stroke="#030303" stroke-width="0.880925543" transform="translate(7.000000, 7.500000) rotate(33.000000) translate(-7.000000, -7.500000) " points="6.65175332 2.5 11.1420748 4.75687692 11.3423539 8.02123695 11.4545455 9.84985225 7.34824668 12.5 2.70310639 10.203269 2.54545455 5.15014775"></polygon>
                        <polygon id="Path-8" fill="#000000" fill-rule="evenodd" transform="translate(6.960960, 7.568645) rotate(33.000000) translate(-6.960960, -7.568645) " points="6.73720686 4.3937816 9.62230112 5.82683683 9.82306789 9.06073714 7.18471357 10.7435086 4.20014605 9.28514714 4.09885254 6.07655308"></polygon>
                    </g>
                    <g id="hexagon" transform="translate(14.882353, 39.198460) rotate(30.000000) translate(-14.882353, -39.198460) translate(7.764706, 31.598460)">
                        <polygon id="Path-8" stroke="#030303" stroke-width="0.880925543" transform="translate(7.000000, 7.500000) rotate(33.000000) translate(-7.000000, -7.500000) " points="6.65175332 2.5 11.1420748 4.75687692 11.3423539 8.02123695 11.4545455 9.84985225 7.34824668 12.5 2.70310639 10.203269 2.54545455 5.15014775"></polygon>
                        <polygon id="Path-8" fill="#000000" fill-rule="evenodd" transform="translate(6.960960, 7.568645) rotate(33.000000) translate(-6.960960, -7.568645) " points="6.73720686 4.3937816 9.62230112 5.82683683 9.82306789 9.06073714 7.18471357 10.7435086 4.20014605 9.28514714 4.09885254 6.07655308"></polygon>
                        <polygon id="Path-8" stroke="#030303" stroke-width="0.880925543" transform="translate(7.000000, 7.500000) rotate(33.000000) translate(-7.000000, -7.500000) " points="6.65175332 2.5 11.1420748 4.75687692 11.3423539 8.02123695 11.4545455 9.84985225 7.34824668 12.5 2.70310639 10.203269 2.54545455 5.15014775"></polygon>
                        <polygon id="Path-8" fill="#000000" fill-rule="evenodd" transform="translate(6.960960, 7.568645) rotate(33.000000) translate(-6.960960, -7.568645) " points="6.73720686 4.3937816 9.62230112 5.82683683 9.82306789 9.06073714 7.18471357 10.7435086 4.20014605 9.28514714 4.09885254 6.07655308"></polygon>
                    </g>
                </g>
                <path d="" id="Path-7" stroke="#979797"></path>
            </g>
        </g>
    </g>
</svg>